<svg xmlns="http://www.w3.org/2000/svg" viewBox="0 0 430 430">
  <defs>
    <style>
      .cls-1 {
        isolation: isolate;
      }

      .cls-2 {
        fill: #2ca58d;
      }

      .cls-3, .cls-4 {
        fill: #ebe6ef;
      }

      .cls-4 {
        mix-blend-mode: multiply;
        opacity: 0.5;
      }

      .cls-5 {
        fill: #646e78;
      }

      .cls-6 {
        fill: #08a88a;
      }
    </style>
  </defs>
  <g class="cls-1">
    <g id="Warstwa_1" data-name="Warstwa 1">
      <g>
        <path class="cls-2" d="M305.48,39.53H95a3.5,3.5,0,0,0-3.5,3.5v318.2a3.51,3.51,0,0,0,3.43,3.5l23.2.46H305.28a3.5,3.5,0,0,0,3.5-3.5L309,93h0V43A3.5,3.5,0,0,0,305.48,39.53Z"/>
        <path class="cls-3" d="M337.43,122.08,278.09,62.73a3.54,3.54,0,0,0-2.48-1h-155a3.5,3.5,0,0,0-3.5,3.5V387a3.49,3.49,0,0,0,3.5,3.5H335a3.5,3.5,0,0,0,3.5-3.5V124.55A3.5,3.5,0,0,0,337.43,122.08Z"/>
        <path class="cls-4" d="M338.45,124.54a3.52,3.52,0,0,0-1-2.46L278.09,62.73a3.51,3.51,0,0,0-2.47-1H254.84v81a2,2,0,0,0,2,2h81.62V124.55Z"/>
        <path class="cls-5" d="M338.45,124.56a3.5,3.5,0,0,0-1-2.48L278.09,62.73a3.48,3.48,0,0,0-2.49-1h-3.49v62.84a3.5,3.5,0,0,0,3.5,3.5h62.85v-3.5Z"/>
        <path class="cls-6" d="M294.5,317H157a3.5,3.5,0,0,1,0-7H294.5a3.5,3.5,0,0,1,0,7Z"/>
        <path class="cls-6" d="M294.5,265.22H157a3.5,3.5,0,0,1,0-7H294.5a3.5,3.5,0,0,1,0,7Z"/>
        <path class="cls-6" d="M294.5,213.42H157a3.5,3.5,0,0,1,0-7H294.5a3.5,3.5,0,0,1,0,7Z"/>
        <path class="cls-6" d="M294.5,161.62H157a3.5,3.5,0,0,1,0-7H294.5a3.5,3.5,0,0,1,0,7Z"/>
      </g>
    </g>
  </g>
</svg>
