<?xml version="1.0" encoding="utf-8"?>
<!-- Generator: Adobe Illustrator 25.2.0, SVG Export Plug-In . SVG Version: 6.00 Build 0)  -->
<svg version="1.1" id="Warstwa_1" xmlns="http://www.w3.org/2000/svg" xmlns:xlink="http://www.w3.org/1999/xlink" x="0px" y="0px"
	 viewBox="0 0 430 430" style="enable-background:new 0 0 430 430;" xml:space="preserve">
<style type="text/css">
	.st0{fill:#121331;}
	.st1{fill:#f24c00;}
	.st2{opacity:0.5;fill:#f24c00;}
	.st3{fill:#92140C;}
	.st4{fill:#4BB3FD;}
	.st5{fill:#3A3347;}
	.st6{fill:#ebe6ef;}
	.st7{fill:#646E78;}
	.st8{opacity:0.5;fill:#ebe6ef;}
	.st9{opacity:0.5;fill:#3A3347;}
	.st10{fill:#FFC738;}
	.st11{fill:#B26836;}
	.st12{fill:#F28BA8;}
	.st13{opacity:0.5;fill:#F28BA8;}
	.st14{opacity:0.5;fill:#B26836;}
	.st15{opacity:0.5;fill:#646E78;}
	.st16{opacity:0.5;fill:#4BB3FD;}
	.st17{fill:#2ca58d;}
	.st18{opacity:0.5;fill:#2ca58d;}
	.st19{opacity:0.5;fill:#FFC738;}
	.st20{fill:#F9C9C0;}
	.st21{fill:none;stroke:#121331;stroke-width:7;stroke-linecap:round;stroke-linejoin:round;stroke-miterlimit:10;}
	.st22{opacity:0.5;}
	.st23{opacity:0.2;fill:#2ca58d;}
	.st24{fill:none;stroke:#f24c00;stroke-width:10;stroke-linecap:round;stroke-linejoin:round;stroke-miterlimit:10;}
	.st25{fill:none;stroke:#2ca58d;stroke-width:10;stroke-linecap:round;stroke-linejoin:round;stroke-miterlimit:10;}
	.st26{fill:none;stroke:#121331;stroke-width:10;stroke-linecap:round;stroke-linejoin:round;stroke-miterlimit:10;}
	.st27{fill:none;stroke:#ebe6ef;stroke-width:7;stroke-linecap:round;stroke-linejoin:round;stroke-miterlimit:10;}
</style>
<path class="st6" d="M379.44,80.75v268.5c0,1.94-1.57,3.5-3.5,3.5H54.06c-1.93,0-3.5-1.56-3.5-3.5V80.75c0-1.93,1.57-3.5,3.5-3.5
	h321.88C377.87,77.25,379.44,78.82,379.44,80.75z"/>
<path class="st17" d="M299.38,352.75H80.26l107.22-183.11c1.16-1.99,4.03-1.99,5.19,0l76.73,131.68L299.38,352.75z"/>
<polygon class="st18" points="296.57,348.12 273.27,352.75 220.13,352.75 259.58,284.57 269.36,301.38 "/>
<path class="st17" d="M350.08,352.75H238.36l31-51.37l0.04-0.06l23.15-38.36c1.16-2,4.03-2,5.19-0.01L350.08,352.75z"/>
<path class="st1" d="M317.05,151.82c0,20.78-16.84,37.62-37.62,37.62c-20.78,0-37.62-16.84-37.62-37.62s16.84-37.62,37.62-37.62
	C300.21,114.2,317.05,131.04,317.05,151.82z"/>
</svg>
