<?xml version="1.0" encoding="utf-8"?>
<!-- Generator: Adobe Illustrator 24.0.2, SVG Export Plug-In . SVG Version: 6.00 Build 0)  -->
<svg version="1.1" id="Warstwa_1" xmlns="http://www.w3.org/2000/svg" xmlns:xlink="http://www.w3.org/1999/xlink" x="0px" y="0px"
	 viewBox="0 0 430 430" style="enable-background:new 0 0 430 430;" xml:space="preserve">
<style type="text/css">
	.st0{fill:#4BB3FD;}
	.st1{opacity:0.5;}
	.st2{opacity:0;}
	.st3{fill:#121331;}
	.st4{fill:#3a3347;}
	.st5{fill:#F28BA8;}
	.st6{fill:#FFC738;}
	.st7{fill:#ebe6ef;}
	.st8{fill:#2CA58D;}
	.st9{fill:#F24C00;}
	.st10{fill:#F9C9C0;}
	.st11{fill:#646E78;}
	.st12{opacity:0.4;}
	.st13{fill:#B26836;}
	.st14{opacity:0.8;}
</style>
<g>
	<path class="st4" d="M373.72,104.66c0-0.93-0.59-1.82-1.65-2.48c-1.05-0.66-2.48-1.02-3.97-1.02c0,0,0,0,0,0l-306.3,0.12
		c-3.1,0-5.61,1.57-5.61,3.5v220.24c0,0.93,0.59,1.82,1.65,2.48c1.05,0.66,2.48,1.02,3.97,1.02c0,0,0,0,0,0l306.4-0.09
		c3.1,0,5.62-1.57,5.61-3.5L373.72,104.66z"/>
</g>
<g class="st1">
	<rect x="119.58" y="101.16" class="st4" width="190.84" height="28.82"/>
</g>
<g class="st1">
	<rect x="119.58" y="299.69" class="st4" width="190.84" height="28.82"/>
</g>
<g>
	<g>
		<rect x="310.42" y="108.16" class="st7" width="55.9" height="65.21"/>
	</g>
	<g>
		<polygon class="st7" points="366.32,321.4 366.32,254.68 310.42,254.68 310.42,321.43 		"/>
	</g>
	<g>
		<rect x="310.42" y="180.37" class="st7" width="55.9" height="67.31"/>
	</g>
</g>
<g>
	<g>
		<rect x="63.68" y="108.16" class="st7" width="55.9" height="65.21"/>
	</g>
	<g>
		<polygon class="st7" points="119.58,321.4 119.58,254.68 63.68,254.68 63.68,321.43 		"/>
	</g>
	<g>
		<rect x="63.68" y="180.37" class="st7" width="55.9" height="67.31"/>
	</g>
</g>
<g class="st1">
	<rect x="56.18" y="104.77" class="st7" width="25.98" height="220.25"/>
</g>
<g>
	<path class="st9" d="M240,216.17l-38.18,39.14c-1.25,1.28-3.43,0.4-3.43-1.4v-76.36c0-1.77,2.13-2.67,3.4-1.43l38.18,37.22
		C240.76,214.11,240.77,215.38,240,216.17z"/>
</g>
</svg>
